<?xml version="1.0" encoding="UTF-8" standalone="no"?>
<svg  version="1.1" xmlns="http://www.w3.org/2000/svg" width="4800px" height="1920px">
<path d="M0 1920 C0 1920, 4608 1920, 4608 1920 C4608 1920, 3840 480, 3840 480 C3840 480, 768 480, 768 480 C768 480, 0 1920, 0 1920 Z " stroke="black" stroke-width="1" fill="none" />

<path d="M160.003 1824 C381.869 1408, 603.734 992, 825.6 576 C1811.2 576, 2796.8 576, 3782.4 576 C4004.26 992, 4226.13 1408, 4447.99 1824 C3018.66 1824, 1589.33 1824, 160.003 1824 Z " stroke="black" stroke-width="1" fill="none" />

<path d="M160.003 1824 C160.003 1824, 1440 1824, 1440 1824 C1440 1824, 1920 576, 1920 576 C1920 576, 825.6 576, 825.6 576 C825.6 576, 160.003 1824, 160.003 1824 Z " stroke="black" stroke-width="1" fill="none" />

<path d="M320.005 1728 C507.737 1376, 695.468 1024, 883.2 672 C1182.21 672, 1481.21 672, 1780.22 672 C1644.84 1024, 1509.45 1376, 1374.07 1728 C1022.71 1728, 671.36 1728, 320.005 1728 Z " stroke="black" stroke-width="1" fill="none" />

<path d="M4447.99 1824 C4447.99 1824, 3167.99 1824, 3167.99 1824 C3167.99 1824, 2687.99 576, 2687.99 576 C2687.99 576, 3782.39 576, 3782.39 576 C3782.39 576, 4447.99 1824, 4447.99 1824 Z " stroke="black" stroke-width="1" fill="none" />

<path d="M4287.98 1728 C4287.98 1728, 3724.79 672, 3724.79 672 C3724.79 672, 2827.77 672, 2827.77 672 C2827.77 672, 3233.92 1728, 3233.92 1728 C3233.92 1728, 4287.98 1728, 4287.98 1728 Z " stroke="black" stroke-width="1" fill="none" />

<path d="M3167.99 1824 C3167.99 1824, 2687.99 576, 2687.99 576 C2687.99 576, 1919.99 576, 1919.99 576 C1919.99 576, 1439.99 1824, 1439.99 1824 C1439.99 1824, 3167.99 1824, 3167.99 1824 Z " stroke="black" stroke-width="1" fill="none" />

<path d="M1932.94 1389.22 C1994.04 1432.75, 2111.41 1499.46, 2340.65 1503.31 C2472.89 1505.55, 2660.49 1463.82, 2757.56 1375.73 C2727.42 1372.77, 2679.25 1334.45, 2659.79 1324.81 C2582.54 1286.47, 2546.15 1282.01, 2450.67 1287.95 C2382.47 1292.2, 2302.99 1319.57, 2280.54 1328.18 C2258.1 1336.8, 2223.17 1343.94, 2183.73 1349.47 C2144.28 1355.01, 2117.34 1346.47, 2085.28 1337.64 C2053.22 1328.77, 2052.48 1327.23, 2003.89 1306.07 C1999.64 1304.21, 1970.4 1297.78, 1934.28 1300.53 C1934.28 1300.53, 1934.28 1300.53, 1934.27 1300.53 C1902.81 1302.92, 1867.29 1312.11, 1863.5 1313.77 C1859.71 1315.43, 1857.59 1317.42, 1861.56 1319.94 C1885.36 1343.03, 1909.15 1366.13, 1932.94 1389.22 Z " stroke="black" stroke-width="1" fill="none" />

<path d="M2850.8 1228.6 C2828.01 1169.33, 2805.21 1110.07, 2782.41 1050.8 C2759.71 1027.47, 2732.77 1007.14, 2703.65 990.77 C2630.37 949.55, 2461.75 864.13, 2200.11 900.97 C2005.3 928.412, 1903.2 991.67, 1848.81 1052.17 C1827.67 1106.75, 1806.29 1162.35, 1784.9 1217.94 C1787.86 1242.67, 1795.86 1264.08, 1797 1267.04 C1820.32 1257.77, 1870.61 1246.06, 1872.54 1245.37 C1874.46 1244.69, 1875.78 1243.52, 1876.73 1240.49 C1893.43 1187.67, 1932.45 1164.38, 1949.66 1151.73 C1973.85 1133.95, 2016.31 1111.41, 2054.26 1095.82 C2061.28 1092.97, 2060.13 1086.3, 2047.31 1089.44 C2034.52 1092.58, 1984.37 1101.82, 1951.01 1100.48 C1934.06 1099.8, 1940.52 1090.48, 1945.67 1086.18 C1952.55 1080.4, 1974.58 1067.12, 1990.54 1058.69 C2057.49 1023.3, 2225.9 972.01, 2407.57 991.52 C2451.04 996.194, 2492.38 997.181, 2523.47 1013.78 C2557.57 1032, 2527.8 1050.48, 2517.95 1047.58 C2487.31 1038.57, 2452.78 1035.67, 2417.02 1033.5 C2319.38 1027.56, 2252.91 1039.06, 2207.95 1054.27 C2089.74 1094.2, 2111.61 1172.95, 2173.43 1188.66 C2200.31 1195.49, 2239.87 1202.66, 2286.04 1202.91 C2361.88 1203.3, 2520.69 1160.27, 2557.77 1153.77 C2594.86 1147.27, 2643.82 1149.24, 2677.43 1174.26 C2710.65 1170.91, 2757.91 1156.44, 2768.52 1146.4 C2776.52 1138.83, 2780.28 1146.62, 2777.59 1152.89 C2774.9 1159.15, 2752.85 1204.8, 2726.77 1220.68 C2741.02 1290.45, 2790.92 1314.45, 2820.02 1310.27 C2835.17 1281.39, 2846.73 1256.79, 2850.45 1226.87 C2850.57 1227.45, 2850.69 1228.02, 2850.8 1228.6 Z " stroke="black" stroke-width="1" fill="none" />

<path d="M1920.28 865.976 C1946.12 798.781, 1971.97 731.585, 1997.81 664.39 C2209.85 664.39, 2421.9 664.39, 2633.94 664.39 C2660.37 733.116, 2686.81 801.842, 2713.24 870.568 C2646.07 824.421, 2562.65 789.588, 2470.61 771.274 C2412.14 759.641, 2350.21 754.674, 2286.62 757.599 C2146.51 764.051, 2018.21 802.396, 1921.06 865.384 C1920.8 865.582, 1920.54 865.779, 1920.28 865.976 Z " stroke="black" stroke-width="1" fill="none" />

<path d="M1743.84 1325.33 C1833.29 1658.49, 2316.57 1649.14, 2364.29 1646.94 C2558.93 1638.57, 2787.94 1532.21, 2873.79 1401.39 C2883.28 1387.29, 2892.78 1373.19, 2902.28 1359.08 C2948.41 1479.01, 2994.53 1598.94, 3040.66 1718.86 C2557.84 1718.86, 2075.02 1718.86, 1592.21 1718.86 C1642.84 1587.21, 1693.48 1455.57, 1744.11 1323.92 C1744.02 1324.39, 1743.93 1324.86, 1743.84 1325.33 Z " stroke="black" stroke-width="1" fill="none" />

</svg>
